<?xml version="1.0" encoding="UTF-8" standalone="no"?>
<!-- Created with Inkscape (http://www.inkscape.org/) -->

<svg
   width="43.391613mm"
   height="43.391613mm"
   viewBox="0 0 43.391613 43.391613"
   version="1.1"
   id="svg1"
   xmlns="http://www.w3.org/2000/svg"
   xmlns:svg="http://www.w3.org/2000/svg">
  <defs
     id="defs1" />
  <g
     transform="scale(0.264583)"
     id="g4">
    <rect
       x="0"
       y="0"
       width="164"
       height="164"
       style="fill:#ffffff;stroke:none"
       id="rect3" />
    <g
       style="fill:#000000;stroke:none"
       id="g3">
      <path
         d="m 16,16 h 4 v 4 h -4 z m 4,0 h 4 v 4 h -4 z m 4,0 h 4 v 4 h -4 z m 4,0 h 4 v 4 h -4 z m 4,0 h 4 v 4 h -4 z m 4,0 h 4 v 4 h -4 z m 4,0 h 4 v 4 h -4 z m 8,0 h 4 v 4 h -4 z m 12,0 h 4 v 4 h -4 z m 4,0 h 4 v 4 h -4 z m 16,0 h 4 v 4 h -4 z m 8,0 h 4 v 4 h -4 z m 4,0 h 4 v 4 h -4 z m 4,0 h 4 v 4 h -4 z m 4,0 h 4 v 4 h -4 z m 8,0 h 4 v 4 h -4 z m 12,0 h 4 v 4 h -4 z m 4,0 h 4 v 4 h -4 z m 4,0 h 4 v 4 h -4 z m 4,0 h 4 v 4 h -4 z m 4,0 h 4 v 4 h -4 z m 4,0 h 4 v 4 h -4 z m 4,0 h 4 v 4 h -4 z M 16,20 h 4 v 4 h -4 z m 24,0 h 4 v 4 h -4 z m 8,0 h 4 v 4 h -4 z m 4,0 h 4 v 4 h -4 z m 4,0 h 4 v 4 h -4 z m 4,0 h 4 v 4 h -4 z m 12,0 h 4 v 4 h -4 z m 12,0 h 4 v 4 h -4 z m 20,0 h 4 v 4 h -4 z m 4,0 h 4 v 4 h -4 z m 4,0 h 4 v 4 h -4 z m 8,0 h 4 v 4 h -4 z m 24,0 h 4 v 4 h -4 z M 16,24 h 4 v 4 h -4 z m 8,0 h 4 v 4 h -4 z m 4,0 h 4 v 4 h -4 z m 4,0 h 4 v 4 h -4 z m 8,0 h 4 v 4 h -4 z m 16,0 h 4 v 4 h -4 z m 12,0 h 4 v 4 h -4 z m 4,0 h 4 v 4 h -4 z m 8,0 h 4 v 4 h -4 z m 8,0 h 4 v 4 h -4 z m 4,0 h 4 v 4 h -4 z m 4,0 h 4 v 4 h -4 z m 16,0 h 4 v 4 h -4 z m 8,0 h 4 v 4 h -4 z m 8,0 h 4 v 4 h -4 z m 4,0 h 4 v 4 h -4 z m 4,0 h 4 v 4 h -4 z m 8,0 h 4 v 4 h -4 z M 16,28 h 4 v 4 h -4 z m 8,0 h 4 v 4 h -4 z m 4,0 h 4 v 4 h -4 z m 4,0 h 4 v 4 h -4 z m 8,0 h 4 v 4 h -4 z m 8,0 h 4 v 4 h -4 z m 16,0 h 4 v 4 h -4 z m 12,0 h 4 v 4 h -4 z m 8,0 h 4 v 4 h -4 z m 20,0 h 4 v 4 h -4 z m 8,0 h 4 v 4 h -4 z m 8,0 h 4 v 4 h -4 z m 8,0 h 4 v 4 h -4 z m 4,0 h 4 v 4 h -4 z m 4,0 h 4 v 4 h -4 z m 8,0 h 4 v 4 h -4 z M 16,32 h 4 v 4 h -4 z m 8,0 h 4 v 4 h -4 z m 4,0 h 4 v 4 h -4 z m 4,0 h 4 v 4 h -4 z m 8,0 h 4 v 4 h -4 z m 28,0 h 4 v 4 h -4 z m 12,0 h 4 v 4 h -4 z m 12,0 h 4 v 4 h -4 z m 12,0 h 4 v 4 h -4 z m 8,0 h 4 v 4 h -4 z m 8,0 h 4 v 4 h -4 z m 8,0 h 4 v 4 h -4 z m 4,0 h 4 v 4 h -4 z m 4,0 h 4 v 4 h -4 z m 8,0 h 4 v 4 h -4 z M 16,36 h 4 v 4 h -4 z m 24,0 h 4 v 4 h -4 z m 12,0 h 4 v 4 h -4 z m 4,0 h 4 v 4 h -4 z m 16,0 h 4 v 4 h -4 z m 4,0 h 4 v 4 h -4 z m 4,0 h 4 v 4 h -4 z m 8,0 h 4 v 4 h -4 z m 4,0 h 4 v 4 h -4 z m 8,0 h 4 v 4 h -4 z m 4,0 h 4 v 4 h -4 z m 8,0 h 4 v 4 h -4 z m 8,0 h 4 v 4 h -4 z m 24,0 h 4 v 4 h -4 z M 16,40 h 4 v 4 h -4 z m 4,0 h 4 v 4 h -4 z m 4,0 h 4 v 4 h -4 z m 4,0 h 4 v 4 h -4 z m 4,0 h 4 v 4 h -4 z m 4,0 h 4 v 4 h -4 z m 4,0 h 4 v 4 h -4 z m 8,0 h 4 v 4 h -4 z m 8,0 h 4 v 4 h -4 z m 8,0 h 4 v 4 h -4 z m 8,0 h 4 v 4 h -4 z m 8,0 h 4 v 4 h -4 z m 8,0 h 4 v 4 h -4 z m 8,0 h 4 v 4 h -4 z m 8,0 h 4 v 4 h -4 z m 8,0 h 4 v 4 h -4 z m 8,0 h 4 v 4 h -4 z m 4,0 h 4 v 4 h -4 z m 4,0 h 4 v 4 h -4 z m 4,0 h 4 v 4 h -4 z m 4,0 h 4 v 4 h -4 z m 4,0 h 4 v 4 h -4 z m 4,0 h 4 v 4 h -4 z m -96,4 h 4 v 4 h -4 z m 16,0 h 4 v 4 h -4 z m 12,0 h 4 v 4 h -4 z m 4,0 h 4 v 4 h -4 z m 4,0 h 4 v 4 h -4 z m 12,0 h 4 v 4 h -4 z m 12,0 h 4 v 4 h -4 z m -92,4 h 4 v 4 h -4 z m 8,0 h 4 v 4 h -4 z m 4,0 h 4 v 4 h -4 z m 8,0 h 4 v 4 h -4 z m 4,0 h 4 v 4 h -4 z m 4,0 h 4 v 4 h -4 z m 12,0 h 4 v 4 h -4 z m 8,0 h 4 v 4 h -4 z m 8,0 h 4 v 4 h -4 z m 4,0 h 4 v 4 h -4 z m 8,0 h 4 v 4 h -4 z m 4,0 h 4 v 4 h -4 z m 12,0 h 4 v 4 h -4 z m 4,0 h 4 v 4 h -4 z m 4,0 h 4 v 4 h -4 z m 4,0 h 4 v 4 h -4 z m 8,0 h 4 v 4 h -4 z m 12,0 h 4 v 4 h -4 z m 8,0 h 4 v 4 h -4 z m 4,0 h 4 v 4 h -4 z M 16,52 h 4 v 4 h -4 z m 4,0 h 4 v 4 h -4 z m 12,0 h 4 v 4 h -4 z m 16,0 h 4 v 4 h -4 z m 8,0 h 4 v 4 h -4 z m 4,0 h 4 v 4 h -4 z m 4,0 h 4 v 4 h -4 z m 4,0 h 4 v 4 h -4 z m 4,0 h 4 v 4 h -4 z m 4,0 h 4 v 4 h -4 z m 4,0 h 4 v 4 h -4 z m 8,0 h 4 v 4 h -4 z m 4,0 h 4 v 4 h -4 z m 4,0 h 4 v 4 h -4 z m 4,0 h 4 v 4 h -4 z m 8,0 h 4 v 4 h -4 z m 12,0 h 4 v 4 h -4 z m 4,0 h 4 v 4 h -4 z m 8,0 h 4 v 4 h -4 z m 4,0 h 4 v 4 h -4 z m 8,0 h 4 v 4 h -4 z M 24,56 h 4 v 4 h -4 z m 12,0 h 4 v 4 h -4 z m 4,0 h 4 v 4 h -4 z m 8,0 h 4 v 4 h -4 z m 4,0 h 4 v 4 h -4 z m 8,0 h 4 v 4 h -4 z m 8,0 h 4 v 4 h -4 z m 12,0 h 4 v 4 h -4 z m 8,0 h 4 v 4 h -4 z m 8,0 h 4 v 4 h -4 z m 4,0 h 4 v 4 h -4 z m 4,0 h 4 v 4 h -4 z m 4,0 h 4 v 4 h -4 z m 8,0 h 4 v 4 h -4 z m 4,0 h 4 v 4 h -4 z m 4,0 h 4 v 4 h -4 z m 4,0 h 4 v 4 h -4 z m 4,0 h 4 v 4 h -4 z m 8,0 h 4 v 4 h -4 z m 4,0 h 4 v 4 h -4 z M 36,60 h 4 v 4 h -4 z m 12,0 h 4 v 4 h -4 z m 4,0 h 4 v 4 h -4 z m 8,0 h 4 v 4 h -4 z m 4,0 h 4 v 4 h -4 z m 12,0 h 4 v 4 h -4 z m 20,0 h 4 v 4 h -4 z m 28,0 h 4 v 4 h -4 z m 8,0 h 4 v 4 h -4 z m 8,0 h 4 v 4 h -4 z m 4,0 h 4 v 4 h -4 z M 16,64 h 4 v 4 h -4 z m 12,0 h 4 v 4 h -4 z m 12,0 h 4 v 4 h -4 z m 4,0 h 4 v 4 h -4 z m 4,0 h 4 v 4 h -4 z m 4,0 h 4 v 4 h -4 z m 4,0 h 4 v 4 h -4 z m 16,0 h 4 v 4 h -4 z m 12,0 h 4 v 4 h -4 z m 20,0 h 4 v 4 h -4 z m 4,0 h 4 v 4 h -4 z m 4,0 h 4 v 4 h -4 z m 4,0 h 4 v 4 h -4 z m 8,0 h 4 v 4 h -4 z m 8,0 h 4 v 4 h -4 z m 8,0 h 4 v 4 h -4 z M 20,68 h 4 v 4 h -4 z m 4,0 h 4 v 4 h -4 z m 4,0 h 4 v 4 h -4 z m 4,0 h 4 v 4 h -4 z m 4,0 h 4 v 4 h -4 z m 8,0 h 4 v 4 h -4 z m 12,0 h 4 v 4 h -4 z m 4,0 h 4 v 4 h -4 z m 4,0 h 4 v 4 h -4 z m 4,0 h 4 v 4 h -4 z m 4,0 h 4 v 4 h -4 z m 16,0 h 4 v 4 h -4 z m 4,0 h 4 v 4 h -4 z m 8,0 h 4 v 4 h -4 z m 12,0 h 4 v 4 h -4 z m 12,0 h 4 v 4 h -4 z m 12,0 h 4 v 4 h -4 z m 4,0 h 4 v 4 h -4 z M 24,72 h 4 v 4 h -4 z m 8,0 h 4 v 4 h -4 z m 8,0 h 4 v 4 h -4 z m 8,0 h 4 v 4 h -4 z m 4,0 h 4 v 4 h -4 z m 8,0 h 4 v 4 h -4 z m 8,0 h 4 v 4 h -4 z m 12,0 h 4 v 4 h -4 z m 12,0 h 4 v 4 h -4 z m 4,0 h 4 v 4 h -4 z m 4,0 h 4 v 4 h -4 z m 12,0 h 4 v 4 h -4 z m 8,0 h 4 v 4 h -4 z m 4,0 h 4 v 4 h -4 z m 4,0 h 4 v 4 h -4 z m 4,0 h 4 v 4 h -4 z m 4,0 h 4 v 4 h -4 z M 16,76 h 4 v 4 h -4 z m 4,0 h 4 v 4 h -4 z m 4,0 h 4 v 4 h -4 z m 20,0 h 4 v 4 h -4 z m 32,0 h 4 v 4 h -4 z m 4,0 h 4 v 4 h -4 z m 12,0 h 4 v 4 h -4 z m 8,0 h 4 v 4 h -4 z m 8,0 h 4 v 4 h -4 z m 8,0 h 4 v 4 h -4 z m 4,0 h 4 v 4 h -4 z m 8,0 h 4 v 4 h -4 z m 4,0 h 4 v 4 h -4 z m 4,0 h 4 v 4 h -4 z M 28,80 h 4 v 4 h -4 z m 4,0 h 4 v 4 h -4 z m 8,0 h 4 v 4 h -4 z m 12,0 h 4 v 4 h -4 z m 8,0 h 4 v 4 h -4 z m 12,0 h 4 v 4 h -4 z m 16,0 h 4 v 4 h -4 z m 8,0 h 4 v 4 h -4 z m 4,0 h 4 v 4 h -4 z m 4,0 h 4 v 4 h -4 z m 4,0 h 4 v 4 h -4 z m 8,0 h 4 v 4 h -4 z m 4,0 h 4 v 4 h -4 z m 8,0 h 4 v 4 h -4 z m 4,0 h 4 v 4 h -4 z m 4,0 h 4 v 4 h -4 z M 24,84 h 4 v 4 h -4 z m 4,0 h 4 v 4 h -4 z m 8,0 h 4 v 4 h -4 z m 8,0 h 4 v 4 h -4 z m 4,0 h 4 v 4 h -4 z m 4,0 h 4 v 4 h -4 z m 16,0 h 4 v 4 h -4 z m 8,0 h 4 v 4 h -4 z m 4,0 h 4 v 4 h -4 z m 8,0 h 4 v 4 h -4 z m 4,0 h 4 v 4 h -4 z m 4,0 h 4 v 4 h -4 z m 4,0 h 4 v 4 h -4 z m 4,0 h 4 v 4 h -4 z m 4,0 h 4 v 4 h -4 z m 4,0 h 4 v 4 h -4 z m 4,0 h 4 v 4 h -4 z m 4,0 h 4 v 4 h -4 z m 8,0 h 4 v 4 h -4 z m 4,0 h 4 v 4 h -4 z m 8,0 h 4 v 4 h -4 z m 4,0 h 4 v 4 h -4 z M 16,88 h 4 v 4 h -4 z m 4,0 h 4 v 4 h -4 z m 12,0 h 4 v 4 h -4 z m 8,0 h 4 v 4 h -4 z m 8,0 h 4 v 4 h -4 z m 8,0 h 4 v 4 h -4 z m 12,0 h 4 v 4 h -4 z m 4,0 h 4 v 4 h -4 z m 4,0 h 4 v 4 h -4 z m 20,0 h 4 v 4 h -4 z m 4,0 h 4 v 4 h -4 z m 12,0 h 4 v 4 h -4 z m 4,0 h 4 v 4 h -4 z m 4,0 h 4 v 4 h -4 z m 4,0 h 4 v 4 h -4 z m 4,0 h 4 v 4 h -4 z m 8,0 h 4 v 4 h -4 z m 4,0 h 4 v 4 h -4 z M 20,92 h 4 v 4 h -4 z m 4,0 h 4 v 4 h -4 z m 4,0 h 4 v 4 h -4 z m 28,0 h 4 v 4 h -4 z m 4,0 h 4 v 4 h -4 z m 4,0 h 4 v 4 h -4 z m 20,0 h 4 v 4 h -4 z m 8,0 h 4 v 4 h -4 z m 12,0 h 4 v 4 h -4 z m 4,0 h 4 v 4 h -4 z m 4,0 h 4 v 4 h -4 z m 16,0 h 4 v 4 h -4 z m 16,0 h 4 v 4 h -4 z M 20,96 h 4 v 4 h -4 z m 8,0 h 4 v 4 h -4 z m 4,0 h 4 v 4 h -4 z m 4,0 h 4 v 4 h -4 z m 4,0 h 4 v 4 h -4 z m 16,0 h 4 v 4 h -4 z m 4,0 h 4 v 4 h -4 z m 8,0 h 4 v 4 h -4 z m 4,0 h 4 v 4 h -4 z m 4,0 h 4 v 4 h -4 z m 8,0 h 4 v 4 h -4 z m 16,0 h 4 v 4 h -4 z m 32,0 h 4 v 4 h -4 z m 4,0 h 4 v 4 h -4 z m -120,4 h 4 v 4 h -4 z m 4,0 h 4 v 4 h -4 z m 16,0 h 4 v 4 h -4 z m 8,0 h 4 v 4 h -4 z m 4,0 h 4 v 4 h -4 z m 12,0 h 4 v 4 h -4 z m 12,0 h 4 v 4 h -4 z m 8,0 h 4 v 4 h -4 z m 4,0 h 4 v 4 h -4 z m 4,0 h 4 v 4 h -4 z m 4,0 h 4 v 4 h -4 z m 4,0 h 4 v 4 h -4 z m 4,0 h 4 v 4 h -4 z m 4,0 h 4 v 4 h -4 z m 4,0 h 4 v 4 h -4 z m 12,0 h 4 v 4 h -4 z m 4,0 h 4 v 4 h -4 z m 8,0 h 4 v 4 h -4 z m 12,0 h 4 v 4 h -4 z m -108,4 h 4 v 4 h -4 z m 4,0 h 4 v 4 h -4 z m 12,0 h 4 v 4 h -4 z m 4,0 h 4 v 4 h -4 z m 4,0 h 4 v 4 h -4 z m 4,0 h 4 v 4 h -4 z m 8,0 h 4 v 4 h -4 z m 8,0 h 4 v 4 h -4 z m 4,0 h 4 v 4 h -4 z m 16,0 h 4 v 4 h -4 z m 8,0 h 4 v 4 h -4 z m 8,0 h 4 v 4 h -4 z m 4,0 h 4 v 4 h -4 z m 4,0 h 4 v 4 h -4 z m 4,0 h 4 v 4 h -4 z m 4,0 h 4 v 4 h -4 z m 8,0 h 4 v 4 h -4 z m 4,0 h 4 v 4 h -4 z m -124,4 h 4 v 4 h -4 z m 24,0 h 4 v 4 h -4 z m 12,0 h 4 v 4 h -4 z m 24,0 h 4 v 4 h -4 z m 28,0 h 4 v 4 h -4 z m 12,0 h 4 v 4 h -4 z m 4,0 h 4 v 4 h -4 z m 8,0 h 4 v 4 h -4 z m 12,0 h 4 v 4 h -4 z m -128,4 h 4 v 4 h -4 z m 8,0 h 4 v 4 h -4 z m 8,0 h 4 v 4 h -4 z m 8,0 h 4 v 4 h -4 z m 12,0 h 4 v 4 h -4 z m 16,0 h 4 v 4 h -4 z m 36,0 h 4 v 4 h -4 z m 8,0 h 4 v 4 h -4 z m 4,0 h 4 v 4 h -4 z m 4,0 h 4 v 4 h -4 z m 4,0 h 4 v 4 h -4 z m 4,0 h 4 v 4 h -4 z m 16,0 h 4 v 4 h -4 z m -96,4 h 4 v 4 h -4 z m 4,0 h 4 v 4 h -4 z m 16,0 h 4 v 4 h -4 z m 8,0 h 4 v 4 h -4 z m 4,0 h 4 v 4 h -4 z m 12,0 h 4 v 4 h -4 z m 4,0 h 4 v 4 h -4 z m 16,0 h 4 v 4 h -4 z m 16,0 h 4 v 4 h -4 z m 4,0 h 4 v 4 h -4 z m 8,0 h 4 v 4 h -4 z m -124,4 h 4 v 4 h -4 z m 4,0 h 4 v 4 h -4 z m 4,0 h 4 v 4 h -4 z m 4,0 h 4 v 4 h -4 z m 4,0 h 4 v 4 h -4 z m 4,0 h 4 v 4 h -4 z m 4,0 h 4 v 4 h -4 z m 8,0 h 4 v 4 h -4 z m 4,0 h 4 v 4 h -4 z m 4,0 h 4 v 4 h -4 z m 4,0 h 4 v 4 h -4 z m 4,0 h 4 v 4 h -4 z m 4,0 h 4 v 4 h -4 z m 16,0 h 4 v 4 h -4 z m 4,0 h 4 v 4 h -4 z m 4,0 h 4 v 4 h -4 z m 4,0 h 4 v 4 h -4 z m 4,0 h 4 v 4 h -4 z m 4,0 h 4 v 4 h -4 z m 4,0 h 4 v 4 h -4 z m 4,0 h 4 v 4 h -4 z m 8,0 h 4 v 4 h -4 z m 8,0 h 4 v 4 h -4 z m -112,4 h 4 v 4 h -4 z m 24,0 h 4 v 4 h -4 z m 8,0 h 4 v 4 h -4 z m 4,0 h 4 v 4 h -4 z m 8,0 h 4 v 4 h -4 z m 8,0 h 4 v 4 h -4 z m 4,0 h 4 v 4 h -4 z m 4,0 h 4 v 4 h -4 z m 4,0 h 4 v 4 h -4 z m 8,0 h 4 v 4 h -4 z m 8,0 h 4 v 4 h -4 z m 4,0 h 4 v 4 h -4 z m 8,0 h 4 v 4 h -4 z m 4,0 h 4 v 4 h -4 z m 16,0 h 4 v 4 h -4 z m 4,0 h 4 v 4 h -4 z m 4,0 h 4 v 4 h -4 z m 8,0 h 4 v 4 h -4 z m -128,4 h 4 v 4 h -4 z m 8,0 h 4 v 4 h -4 z m 4,0 h 4 v 4 h -4 z m 4,0 h 4 v 4 h -4 z m 8,0 h 4 v 4 h -4 z m 28,0 h 4 v 4 h -4 z m 20,0 h 4 v 4 h -4 z m 4,0 h 4 v 4 h -4 z m 8,0 h 4 v 4 h -4 z m 4,0 h 4 v 4 h -4 z m 4,0 h 4 v 4 h -4 z m 4,0 h 4 v 4 h -4 z m 4,0 h 4 v 4 h -4 z m 4,0 h 4 v 4 h -4 z m 4,0 h 4 v 4 h -4 z m 4,0 h 4 v 4 h -4 z m 8,0 h 4 v 4 h -4 z m 8,0 h 4 v 4 h -4 z m -128,4 h 4 v 4 h -4 z m 8,0 h 4 v 4 h -4 z m 4,0 h 4 v 4 h -4 z m 4,0 h 4 v 4 h -4 z m 8,0 h 4 v 4 h -4 z m 8,0 h 4 v 4 h -4 z m 4,0 h 4 v 4 h -4 z m 8,0 h 4 v 4 h -4 z m 8,0 h 4 v 4 h -4 z m 8,0 h 4 v 4 h -4 z m 8,0 h 4 v 4 h -4 z m 12,0 h 4 v 4 h -4 z m 4,0 h 4 v 4 h -4 z m 8,0 h 4 v 4 h -4 z m 16,0 h 4 v 4 h -4 z m 12,0 h 4 v 4 h -4 z m 8,0 h 4 v 4 h -4 z m -128,4 h 4 v 4 h -4 z m 8,0 h 4 v 4 h -4 z m 4,0 h 4 v 4 h -4 z m 4,0 h 4 v 4 h -4 z m 8,0 h 4 v 4 h -4 z m 8,0 h 4 v 4 h -4 z m 4,0 h 4 v 4 h -4 z m 4,0 h 4 v 4 h -4 z m 4,0 h 4 v 4 h -4 z m 4,0 h 4 v 4 h -4 z m 12,0 h 4 v 4 h -4 z m 4,0 h 4 v 4 h -4 z m 8,0 h 4 v 4 h -4 z m 16,0 h 4 v 4 h -4 z m 16,0 h 4 v 4 h -4 z m 4,0 h 4 v 4 h -4 z m 8,0 h 4 v 4 h -4 z m 4,0 h 4 v 4 h -4 z m -120,4 h 4 v 4 h -4 z m 24,0 h 4 v 4 h -4 z m 12,0 h 4 v 4 h -4 z m 12,0 h 4 v 4 h -4 z m 4,0 h 4 v 4 h -4 z m 8,0 h 4 v 4 h -4 z m 4,0 h 4 v 4 h -4 z m 4,0 h 4 v 4 h -4 z m 20,0 h 4 v 4 h -4 z m 8,0 h 4 v 4 h -4 z m 4,0 h 4 v 4 h -4 z m 4,0 h 4 v 4 h -4 z m 4,0 h 4 v 4 h -4 z m 4,0 h 4 v 4 h -4 z m 16,0 h 4 v 4 h -4 z m -128,4 h 4 v 4 h -4 z m 4,0 h 4 v 4 h -4 z m 4,0 h 4 v 4 h -4 z m 4,0 h 4 v 4 h -4 z m 4,0 h 4 v 4 h -4 z m 4,0 h 4 v 4 h -4 z m 4,0 h 4 v 4 h -4 z m 8,0 h 4 v 4 h -4 z m 4,0 h 4 v 4 h -4 z m 4,0 h 4 v 4 h -4 z m 12,0 h 4 v 4 h -4 z m 12,0 h 4 v 4 h -4 z m 4,0 h 4 v 4 h -4 z m 4,0 h 4 v 4 h -4 z m 4,0 h 4 v 4 h -4 z m 8,0 h 4 v 4 h -4 z m 8,0 h 4 v 4 h -4 z m 20,0 h 4 v 4 h -4 z m 8,0 h 4 v 4 h -4 z"
         id="path3" />
    </g>
  </g>
</svg>
